<mxfile host="65bd71144e">
    <diagram id="Eq-LZL2VDvFyJgRqaXCA" name="Page-1">
        <mxGraphModel dx="1558" dy="2356" grid="1" gridSize="10" guides="1" tooltips="1" connect="1" arrows="1" fold="1" page="1" pageScale="1" pageWidth="850" pageHeight="1100" math="0" shadow="0">
            <root>
                <mxCell id="0"/>
                <mxCell id="1" parent="0"/>
                <mxCell id="3" style="edgeStyle=none;html=1;exitX=1;exitY=0.5;exitDx=0;exitDy=0;entryX=0;entryY=0.5;entryDx=0;entryDy=0;fontColor=#000000;" parent="1" target="8" edge="1">
                    <mxGeometry relative="1" as="geometry">
                        <mxPoint x="110" y="110" as="sourcePoint"/>
                    </mxGeometry>
                </mxCell>
                <mxCell id="4" style="edgeStyle=orthogonalEdgeStyle;html=1;exitX=0.5;exitY=1;exitDx=0;exitDy=0;entryX=0.5;entryY=0;entryDx=0;entryDy=0;rounded=0;fontColor=#000000;" parent="1" source="40" target="26" edge="1">
                    <mxGeometry relative="1" as="geometry">
                        <mxPoint x="155" y="190" as="targetPoint"/>
                        <mxPoint x="70" y="140" as="sourcePoint"/>
                        <Array as="points">
                            <mxPoint x="125" y="200"/>
                            <mxPoint x="135" y="200"/>
                        </Array>
                    </mxGeometry>
                </mxCell>
                <mxCell id="6" style="edgeStyle=none;html=1;exitX=1;exitY=0.5;exitDx=0;exitDy=0;entryX=0;entryY=0.5;entryDx=0;entryDy=0;fontColor=#000000;" parent="1" source="8" target="12" edge="1">
                    <mxGeometry relative="1" as="geometry"/>
                </mxCell>
                <mxCell id="7" style="edgeStyle=orthogonalEdgeStyle;html=1;exitX=0.5;exitY=1;exitDx=0;exitDy=0;entryX=0.5;entryY=0;entryDx=0;entryDy=0;rounded=0;fontColor=#000000;" parent="1" source="8" target="26" edge="1">
                    <mxGeometry relative="1" as="geometry">
                        <mxPoint x="155" y="190" as="targetPoint"/>
                        <Array as="points">
                            <mxPoint x="210" y="140"/>
                            <mxPoint x="210" y="200"/>
                            <mxPoint x="135" y="200"/>
                        </Array>
                    </mxGeometry>
                </mxCell>
                <mxCell id="8" value="Semantic Analysis" style="rounded=0;whiteSpace=wrap;html=1;fillColor=default;fontColor=#000000;strokeColor=#000000;" parent="1" vertex="1">
                    <mxGeometry x="190" y="80" width="60" height="60" as="geometry"/>
                </mxCell>
                <mxCell id="9" style="edgeStyle=orthogonalEdgeStyle;html=1;exitX=1;exitY=0.5;exitDx=0;exitDy=0;entryX=0;entryY=0.5;entryDx=0;entryDy=0;rounded=0;fontColor=#000000;" parent="1" source="12" target="13" edge="1">
                    <mxGeometry relative="1" as="geometry"/>
                </mxCell>
                <mxCell id="10" style="edgeStyle=none;html=1;exitX=0.25;exitY=1;exitDx=0;exitDy=0;entryX=0.25;entryY=0;entryDx=0;entryDy=0;fontColor=#000000;" parent="1" source="12" target="17" edge="1">
                    <mxGeometry relative="1" as="geometry"/>
                </mxCell>
                <mxCell id="11" style="edgeStyle=orthogonalEdgeStyle;html=1;exitX=1;exitY=0.5;exitDx=0;exitDy=0;entryX=0;entryY=0.5;entryDx=0;entryDy=0;rounded=0;fontColor=#000000;" parent="1" source="12" target="15" edge="1">
                    <mxGeometry relative="1" as="geometry"/>
                </mxCell>
                <mxCell id="12" value="Logical&lt;br&gt;Plan" style="rounded=0;whiteSpace=wrap;html=1;fontColor=#000000;" parent="1" vertex="1">
                    <mxGeometry x="280" y="80" width="100" height="60" as="geometry"/>
                </mxCell>
                <mxCell id="13" value="Dots" style="rounded=0;whiteSpace=wrap;html=1;fontColor=#000000;" parent="1" vertex="1">
                    <mxGeometry x="420" y="35" width="80" height="40" as="geometry"/>
                </mxCell>
                <mxCell id="14" style="edgeStyle=none;html=1;exitX=1;exitY=0.5;exitDx=0;exitDy=0;entryX=0;entryY=0.5;entryDx=0;entryDy=0;fontColor=#000000;" parent="1" source="15" edge="1">
                    <mxGeometry relative="1" as="geometry">
                        <mxPoint x="550.0000000000002" y="145" as="targetPoint"/>
                    </mxGeometry>
                </mxCell>
                <mxCell id="15" value="" style="rounded=0;whiteSpace=wrap;html=1;fontColor=#000000;" parent="1" vertex="1">
                    <mxGeometry x="420" y="85" width="190" height="110" as="geometry"/>
                </mxCell>
                <mxCell id="16" style="edgeStyle=none;html=1;exitX=0.75;exitY=0;exitDx=0;exitDy=0;entryX=0.75;entryY=1;entryDx=0;entryDy=0;fontColor=#000000;" parent="1" source="17" target="12" edge="1">
                    <mxGeometry relative="1" as="geometry"/>
                </mxCell>
                <mxCell id="17" value="Logical Optimizer" style="rounded=0;whiteSpace=wrap;html=1;fontColor=#000000;" parent="1" vertex="1">
                    <mxGeometry x="280" y="160" width="100" height="20" as="geometry"/>
                </mxCell>
                <mxCell id="18" value="" style="endArrow=classic;html=1;entryX=0;entryY=0.5;entryDx=0;entryDy=0;exitX=1;exitY=0.5;exitDx=0;exitDy=0;fontColor=#000000;" parent="1" source="20" edge="1">
                    <mxGeometry width="50" height="50" relative="1" as="geometry">
                        <mxPoint x="60" y="112.5" as="sourcePoint"/>
                        <mxPoint x="90" y="112.5" as="targetPoint"/>
                    </mxGeometry>
                </mxCell>
                <mxCell id="74" style="edgeStyle=orthogonalEdgeStyle;rounded=0;html=1;exitX=0.5;exitY=1;exitDx=0;exitDy=0;entryX=0;entryY=0.75;entryDx=0;entryDy=0;fontColor=#000000;" parent="1" source="20" target="81" edge="1">
                    <mxGeometry relative="1" as="geometry">
                        <Array as="points">
                            <mxPoint y="415"/>
                        </Array>
                        <mxPoint x="797.5" y="170" as="targetPoint"/>
                    </mxGeometry>
                </mxCell>
                <mxCell id="20" value="Rust Compiler Tokens" style="text;html=1;strokeColor=none;fillColor=none;align=center;verticalAlign=middle;whiteSpace=wrap;rounded=0;fontColor=#000000;" parent="1" vertex="1">
                    <mxGeometry x="-30" y="85" width="60" height="55" as="geometry"/>
                </mxCell>
                <mxCell id="21" style="edgeStyle=none;html=1;exitX=1;exitY=0.5;exitDx=0;exitDy=0;entryX=0;entryY=0.5;entryDx=0;entryDy=0;fontColor=#000000;" parent="1" edge="1">
                    <mxGeometry relative="1" as="geometry">
                        <mxPoint x="500.0000000000002" y="55" as="sourcePoint"/>
                        <mxPoint x="550.0000000000002" y="55" as="targetPoint"/>
                    </mxGeometry>
                </mxCell>
                <mxCell id="83" style="edgeStyle=orthogonalEdgeStyle;rounded=0;html=1;exitX=1;exitY=0.5;exitDx=0;exitDy=0;entryX=0.75;entryY=0;entryDx=0;entryDy=0;" edge="1" parent="1" source="22" target="81">
                    <mxGeometry relative="1" as="geometry"/>
                </mxCell>
                <mxCell id="22" value="Rust Compiler Tokens" style="text;html=1;strokeColor=none;fillColor=none;align=center;verticalAlign=middle;whiteSpace=wrap;rounded=0;fontColor=#000000;" parent="1" vertex="1">
                    <mxGeometry x="550" y="40" width="60" height="30" as="geometry"/>
                </mxCell>
                <mxCell id="23" value="emQL contains syntax for selecting multiple backends" style="text;html=1;strokeColor=none;fillColor=none;align=center;verticalAlign=middle;whiteSpace=wrap;rounded=0;fontStyle=2;fontSize=8;fontColor=#000000;" parent="1" vertex="1">
                    <mxGeometry x="280" y="50" width="125" height="30" as="geometry"/>
                </mxCell>
                <mxCell id="24" value="Dots graph representation of queries generated for debugging and inspecting optimisations" style="text;html=1;strokeColor=none;fillColor=none;align=center;verticalAlign=middle;whiteSpace=wrap;rounded=0;fontStyle=2;fontSize=8;fontColor=#000000;" parent="1" vertex="1">
                    <mxGeometry x="400" y="5" width="180" height="30" as="geometry"/>
                </mxCell>
                <mxCell id="25" value="Basic strict IVM cases (e.g. updating single value queries)&amp;nbsp;" style="text;html=1;strokeColor=none;fillColor=none;align=left;verticalAlign=middle;whiteSpace=wrap;rounded=0;fontStyle=2;fontSize=8;fontColor=#000000;" parent="1" vertex="1">
                    <mxGeometry x="385" y="287.5" width="120" height="25" as="geometry"/>
                </mxCell>
                <mxCell id="26" value="Rust Compiler Diagnostics" style="text;html=1;strokeColor=none;fillColor=none;align=center;verticalAlign=middle;whiteSpace=wrap;rounded=0;fontColor=#000000;" parent="1" vertex="1">
                    <mxGeometry x="60" y="230" width="150" height="30" as="geometry"/>
                </mxCell>
                <mxCell id="28" value="analysis for emQL constructs, rust expressions are pushed into result and compile errors from the generated output passed to the user with their original spans&amp;nbsp;&amp;nbsp;" style="text;html=1;strokeColor=none;fillColor=none;align=center;verticalAlign=middle;whiteSpace=wrap;rounded=0;fontStyle=2;fontSize=8;fontColor=#000000;" parent="1" vertex="1">
                    <mxGeometry x="120" y="40" width="180" height="30" as="geometry"/>
                </mxCell>
                <mxCell id="58" style="html=1;exitX=0.5;exitY=1;exitDx=0;exitDy=0;rounded=0;edgeStyle=orthogonalEdgeStyle;entryX=0;entryY=0.25;entryDx=0;entryDy=0;fontColor=#000000;" parent="1" source="30" target="81" edge="1">
                    <mxGeometry relative="1" as="geometry">
                        <mxPoint x="780" y="170" as="targetPoint"/>
                        <Array as="points">
                            <mxPoint x="135" y="385"/>
                        </Array>
                    </mxGeometry>
                </mxCell>
                <mxCell id="30" value="For seamless integration of the emql language's errors with rust, and the rust language server" style="text;html=1;strokeColor=none;fillColor=none;align=center;verticalAlign=middle;whiteSpace=wrap;rounded=0;fontStyle=2;fontSize=8;fontColor=#000000;" parent="1" vertex="1">
                    <mxGeometry x="40" y="245" width="190" height="30" as="geometry"/>
                </mxCell>
                <mxCell id="31" value="Cardinality Reduction" style="rounded=0;whiteSpace=wrap;html=1;fontColor=#000000;" parent="1" vertex="1">
                    <mxGeometry x="300" y="200" width="80" height="40" as="geometry"/>
                </mxCell>
                <mxCell id="32" value="Enrich constraints" style="rounded=0;whiteSpace=wrap;html=1;fontColor=#000000;" parent="1" vertex="1">
                    <mxGeometry x="300" y="240" width="80" height="40" as="geometry"/>
                </mxCell>
                <mxCell id="34" value="Rule Based" style="rounded=0;whiteSpace=wrap;html=1;fontColor=#000000;horizontal=0;" parent="1" vertex="1">
                    <mxGeometry x="280" y="200" width="20" height="120" as="geometry"/>
                </mxCell>
                <mxCell id="35" value="Build Views" style="rounded=0;whiteSpace=wrap;html=1;fontColor=#000000;" parent="1" vertex="1">
                    <mxGeometry x="300" y="280" width="80" height="40" as="geometry"/>
                </mxCell>
                <mxCell id="38" value="Using queries to determine which fields of which tables are immutable, unused, or always mapped. And which operations are required for tables (select, delete, update)." style="text;html=1;strokeColor=none;fillColor=none;align=left;verticalAlign=middle;whiteSpace=wrap;rounded=0;fontStyle=2;fontSize=8;fontColor=#000000;" parent="1" vertex="1">
                    <mxGeometry x="385" y="240" width="160" height="40" as="geometry"/>
                </mxCell>
                <mxCell id="39" value="Reordering operations to reduce cardinality of bags passed to expensive operators (e.g. push up filters)." style="text;html=1;strokeColor=none;fillColor=none;align=left;verticalAlign=middle;whiteSpace=wrap;rounded=0;fontStyle=2;fontSize=8;fontColor=#000000;" parent="1" vertex="1">
                    <mxGeometry x="385" y="200" width="160" height="40" as="geometry"/>
                </mxCell>
                <mxCell id="40" value="" style="rounded=0;whiteSpace=wrap;html=1;fillColor=default;fontColor=#000000;strokeColor=#000000;" parent="1" vertex="1">
                    <mxGeometry x="90" y="80" width="70" height="100" as="geometry"/>
                </mxCell>
                <mxCell id="41" value="&#10;&lt;span style=&quot;font-family: Helvetica; font-size: 12px; font-style: normal; font-variant-ligatures: normal; font-variant-caps: normal; font-weight: 400; letter-spacing: normal; orphans: 2; text-align: center; text-indent: 0px; text-transform: none; widows: 2; word-spacing: 0px; -webkit-text-stroke-width: 0px; text-decoration-thickness: initial; text-decoration-style: initial; text-decoration-color: initial; float: none; display: inline !important;&quot;&gt;EMQL&lt;/span&gt;&lt;br style=&quot;border-color: rgb(0, 0, 0); font-family: Helvetica; font-size: 12px; font-style: normal; font-variant-ligatures: normal; font-variant-caps: normal; font-weight: 400; letter-spacing: normal; orphans: 2; text-align: center; text-indent: 0px; text-transform: none; widows: 2; word-spacing: 0px; -webkit-text-stroke-width: 0px; text-decoration-thickness: initial; text-decoration-style: initial; text-decoration-color: initial;&quot;&gt;&lt;span style=&quot;font-family: Helvetica; font-size: 12px; font-style: normal; font-variant-ligatures: normal; font-variant-caps: normal; font-weight: 400; letter-spacing: normal; orphans: 2; text-align: center; text-indent: 0px; text-transform: none; widows: 2; word-spacing: 0px; -webkit-text-stroke-width: 0px; text-decoration-thickness: initial; text-decoration-style: initial; text-decoration-color: initial; float: none; display: inline !important;&quot;&gt;Parser&lt;/span&gt;&#10;&#10;" style="text;html=1;strokeColor=none;fillColor=none;align=center;verticalAlign=middle;whiteSpace=wrap;rounded=0;labelBackgroundColor=none;fontColor=#000000;" parent="1" vertex="1">
                    <mxGeometry x="95" y="95" width="60" height="30" as="geometry"/>
                </mxCell>
                <mxCell id="44" value="Combi" style="rounded=0;whiteSpace=wrap;html=1;fillColor=default;fontColor=#000000;strokeColor=#000000;" parent="1" vertex="1">
                    <mxGeometry x="100" y="130" width="50" height="40" as="geometry"/>
                </mxCell>
                <mxCell id="45" value="Multiple syntax errors" style="text;html=1;strokeColor=none;fillColor=none;align=center;verticalAlign=middle;whiteSpace=wrap;rounded=0;fontStyle=2;fontSize=8;fontColor=#000000;" parent="1" vertex="1">
                    <mxGeometry x="30" y="205" width="100" height="30" as="geometry"/>
                </mxCell>
                <mxCell id="46" value="Multiple semantic errors" style="text;html=1;strokeColor=none;fillColor=none;align=center;verticalAlign=middle;whiteSpace=wrap;rounded=0;fontStyle=2;fontSize=8;fontColor=#000000;" parent="1" vertex="1">
                    <mxGeometry x="140" y="205" width="100" height="30" as="geometry"/>
                </mxCell>
                <mxCell id="52" style="edgeStyle=none;html=1;exitX=1;exitY=0.5;exitDx=0;exitDy=0;entryX=0;entryY=0.5;entryDx=0;entryDy=0;fontColor=#000000;" parent="1" source="48" target="51" edge="1">
                    <mxGeometry relative="1" as="geometry"/>
                </mxCell>
                <mxCell id="48" value="Data Structure Selection" style="rounded=0;whiteSpace=wrap;html=1;fontColor=#000000;" parent="1" vertex="1">
                    <mxGeometry x="430" y="115" width="75" height="60" as="geometry"/>
                </mxCell>
                <mxCell id="51" value="Code&lt;br&gt;Generation" style="rounded=0;whiteSpace=wrap;html=1;fontColor=#000000;" parent="1" vertex="1">
                    <mxGeometry x="530" y="115" width="70" height="60" as="geometry"/>
                </mxCell>
                <mxCell id="53" value="using provided constraints" style="text;html=1;strokeColor=none;fillColor=none;align=center;verticalAlign=middle;whiteSpace=wrap;rounded=0;fontStyle=2;fontSize=8;fontColor=#000000;" parent="1" vertex="1">
                    <mxGeometry x="420" y="175" width="110" height="20" as="geometry"/>
                </mxCell>
                <mxCell id="54" value="Simple Serializable Store" style="text;html=1;strokeColor=none;fillColor=none;align=center;verticalAlign=middle;whiteSpace=wrap;rounded=0;labelBackgroundColor=none;fontColor=#000000;" parent="1" vertex="1">
                    <mxGeometry x="435" y="85" width="160" height="30" as="geometry"/>
                </mxCell>
                <mxCell id="68" style="edgeStyle=orthogonalEdgeStyle;rounded=0;html=1;exitX=0;exitY=0.5;exitDx=0;exitDy=0;entryX=1;entryY=0.5;entryDx=0;entryDy=0;startArrow=none;fontColor=#000000;" parent="1" source="62" target="64" edge="1">
                    <mxGeometry relative="1" as="geometry"/>
                </mxCell>
                <mxCell id="73" style="edgeStyle=orthogonalEdgeStyle;rounded=0;html=1;exitX=0.25;exitY=1;exitDx=0;exitDy=0;entryX=0.5;entryY=0;entryDx=0;entryDy=0;fontColor=#000000;" parent="1" source="64" target="20" edge="1">
                    <mxGeometry relative="1" as="geometry">
                        <mxPoint x="30" y="40" as="targetPoint"/>
                    </mxGeometry>
                </mxCell>
                <mxCell id="64" value="User Code" style="rounded=0;whiteSpace=wrap;html=1;fontColor=#000000;" parent="1" vertex="1">
                    <mxGeometry x="-23" y="-50" width="90" height="60" as="geometry"/>
                </mxCell>
                <mxCell id="62" value="Embedded rust code parsed and analysed by the rust compiler, errors are reported with spans from the original emQL plan" style="text;html=1;strokeColor=none;fillColor=none;align=center;verticalAlign=middle;whiteSpace=wrap;rounded=0;fontStyle=2;fontSize=8;fontColor=#000000;" parent="1" vertex="1">
                    <mxGeometry x="450" y="-40" width="160" height="40" as="geometry"/>
                </mxCell>
                <mxCell id="75" value="emQL code passed through database! macro" style="text;html=1;strokeColor=none;fillColor=none;align=center;verticalAlign=middle;whiteSpace=wrap;rounded=0;fontStyle=2;fontSize=8;fontColor=#000000;" parent="1" vertex="1">
                    <mxGeometry x="30" y="75" width="60" height="30" as="geometry"/>
                </mxCell>
                <mxCell id="76" value="application code" style="text;html=1;strokeColor=none;fillColor=none;align=center;verticalAlign=middle;whiteSpace=wrap;rounded=0;fontStyle=2;fontSize=8;fontColor=#000000;" parent="1" vertex="1">
                    <mxGeometry y="140" width="50" height="30" as="geometry"/>
                </mxCell>
                <mxCell id="77" style="edgeStyle=none;html=1;exitX=0.25;exitY=1;exitDx=0;exitDy=0;entryX=0.25;entryY=0;entryDx=0;entryDy=0;fontColor=#000000;" parent="1" edge="1">
                    <mxGeometry relative="1" as="geometry">
                        <mxPoint x="304.89" y="180" as="sourcePoint"/>
                        <mxPoint x="304.89" y="200" as="targetPoint"/>
                    </mxGeometry>
                </mxCell>
                <mxCell id="78" style="edgeStyle=none;html=1;exitX=0.75;exitY=0;exitDx=0;exitDy=0;entryX=0.75;entryY=1;entryDx=0;entryDy=0;fontColor=#000000;" parent="1" edge="1">
                    <mxGeometry relative="1" as="geometry">
                        <mxPoint x="354.89" y="200" as="sourcePoint"/>
                        <mxPoint x="354.89" y="180" as="targetPoint"/>
                    </mxGeometry>
                </mxCell>
                <mxCell id="82" style="edgeStyle=orthogonalEdgeStyle;rounded=0;html=1;exitX=0.5;exitY=1;exitDx=0;exitDy=0;entryX=0.25;entryY=0;entryDx=0;entryDy=0;" edge="1" parent="1" source="79" target="81">
                    <mxGeometry relative="1" as="geometry"/>
                </mxCell>
                <mxCell id="79" value="Rust Compiler Tokens" style="text;html=1;strokeColor=none;fillColor=none;align=center;verticalAlign=middle;whiteSpace=wrap;rounded=0;fontColor=#000000;" vertex="1" parent="1">
                    <mxGeometry x="565" y="220" width="60" height="50" as="geometry"/>
                </mxCell>
                <mxCell id="80" style="edgeStyle=none;html=1;exitX=0.921;exitY=0.997;exitDx=0;exitDy=0;fontColor=#000000;entryX=0.5;entryY=0;entryDx=0;entryDy=0;exitPerimeter=0;" edge="1" parent="1" source="15" target="79">
                    <mxGeometry relative="1" as="geometry">
                        <mxPoint x="680" y="205" as="sourcePoint"/>
                        <mxPoint x="680" y="235" as="targetPoint"/>
                    </mxGeometry>
                </mxCell>
                <mxCell id="84" style="edgeStyle=orthogonalEdgeStyle;rounded=0;html=1;exitX=1;exitY=0.25;exitDx=0;exitDy=0;entryX=1;entryY=0.5;entryDx=0;entryDy=0;" edge="1" parent="1" source="81" target="62">
                    <mxGeometry relative="1" as="geometry">
                        <Array as="points">
                            <mxPoint x="660" y="385"/>
                            <mxPoint x="660" y="-20"/>
                        </Array>
                    </mxGeometry>
                </mxCell>
                <mxCell id="81" value="Rust Compiler" style="rounded=0;whiteSpace=wrap;html=1;fontColor=#000000;" vertex="1" parent="1">
                    <mxGeometry x="578" y="370" width="70" height="60" as="geometry"/>
                </mxCell>
            </root>
        </mxGraphModel>
    </diagram>
</mxfile>